<svg xmlns="http://www.w3.org/2000/svg" width="24" height="24" viewBox="0 0 24 24" fill="none">
    <!-- Ghost body - transparent with outline -->
    <path d="M9 3.5C5 3.5 3 6.5 3 10.5C3 14.5 3 19 3 19L6 17L9 19L12 17L15 19L18 17L21 19C21 19 21 14.5 21 10.5C21 6.5 19 3.5 15 3.5C13.5 3.5 12.5 4 12 5C11.5 4 10.5 3.5 9 3.5Z" stroke="#c7c7c7" stroke-width="2" fill="none"/>

    <!-- Code brackets in eyes -->
    <path d="M8 8L6.5 9.5L8 11" stroke="#c7c7c7" stroke-width="1.5"/>
    <path d="M16 8L17.5 9.5L16 11" stroke="#c7c7c7" stroke-width="1.5"/>
</svg>
